<svg height="512" width="512" xmlns="http://www.w3.org/2000/svg"><path d="M427.406 45l-87.062 47.594L361 108.28c-14.872 20.083-56.143 71.503-111.188 104.875-67.962 41.205-200.187 59.969-200.187 59.969l3.938 29.719s133.123-16.324 211.812-64.031c60.005-36.38 103.258-90.207 119.531-112.344l19.938 15.156L427.406 45zm31.032 164.156s-133.124 16.324-211.813 64.032c-60.005 36.38-103.258 90.206-119.531 112.343l-19.938-15.156L84.594 467l87.062-47.594L151 403.72c14.872-20.083 56.143-71.503 111.188-104.875 67.962-41.205 200.187-59.969 200.187-59.969l-3.938-29.719z"/></svg>