<svg xmlns="http://www.w3.org/2000/svg" width="25" height="22"><defs><clipPath id="a"><path transform="translate(0 .724)" fill="none" d="M0 0h25v22H0z"/></clipPath></defs><g data-name="Vector Smart Object" transform="translate(0 -.724)" clip-path="url(#a)" stroke="#000" stroke-miterlimit="10" stroke-width=".281"><path data-name="Path 29" d="M10.483 18.544a2.03 2.03 0 1 0 0 4.045 2.03 2.03 0 1 0 0-4.045zm0 2.916a.9.9 0 1 1 .971-.893.936.936 0 0 1-.971.893z"/><path data-name="Path 30" d="M18.195 18.544a2.03 2.03 0 1 0 2.2 2.023 2.119 2.119 0 0 0-2.2-2.023zm0 2.916a.9.9 0 1 1 .971-.893.936.936 0 0 1-.971.893z"/><path data-name="Path 31" d="M24.724 4.93a1.266 1.266 0 0 0-.952-.416H4.652l-.386-1.725a1.156 1.156 0 0 0-.714-.808L.858.906a.635.635 0 0 0-.807.294.548.548 0 0 0 .319.743l2.694 1.074 2.97 13.712a1.212 1.212 0 0 0 1.2.9h14.708a.567.567 0 1 0 0-1.129H7.236l-.361-2.062h15.18a1.212 1.212 0 0 0 1.2-.9l1.717-7.667a1.059 1.059 0 0 0-.248-.941zm-2.669 8.38H6.622L4.905 5.643h18.867z"/></g></svg>