<svg xmlns="http://www.w3.org/2000/svg" width="82.496" height="82.498"><g fill="#fff200" stroke="#fff200" stroke-width=".64" fill-rule="evenodd"><path d="M.32 74.7V7.8A7.481 7.481 0 0 1 7.796.32h66.9a7.484 7.484 0 0 1 7.476 7.477v66.9a7.481 7.481 0 0 1-7.476 7.477h-66.9A7.479 7.479 0 0 1 .32 74.7zm79.3 0V7.8a4.929 4.929 0 0 0-4.918-4.919H7.796A4.927 4.927 0 0 0 2.878 7.8v66.9a4.925 4.925 0 0 0 4.918 4.92h66.9a4.927 4.927 0 0 0 4.924-4.92z"/><path d="M13.112 56.607c0-5.986 7.848-10.247 16.62-10.247a25.573 25.573 0 0 1 7.571 1.119 10.153 10.153 0 0 1-2.145-2.146 6.8 6.8 0 0 1-1.211-4.5c-4.886 1.42-10.555-.831-13.621-5.484-3.588-5.448-2.5-12.543 2.844-15.688a10.5 10.5 0 0 1 5.287-1.433h17.905v2.555H35.974a13.45 13.45 0 0 1 3.168 3.353c3.489 5.3 2.554 12.157-2.418 15.422 0 .024-.007.044-.01.065a4.883 4.883 0 0 0 .535 4.237 12.979 12.979 0 0 0 3.353 2.821c2.534 1.743 5.45 3.909 5.624 8.644a6.7 6.7 0 0 1 .126 1.283c0 5.99-7.851 10.247-16.62 10.247-8.82-.001-16.62-4.282-16.62-10.248zm30.49 1.214a1.233 1.233 0 0 1-.027-.488 12.076 12.076 0 0 0 .1-1.658c-.839-3.51-6.34-6.757-13.946-6.757-8.363 0-14.062 3.882-14.062 7.689 0 3.848 5.777 7.689 14.062 7.689 7.472 0 12.824-3.097 13.874-6.474zm15.546-19.129v-7.664h-7.674v-2.566h7.674v-7.675h2.564v7.675h7.674v2.566h-7.674v7.664zm-24.15-1.075c3.857-2.265 4.945-7.614 2.005-12.072-2.953-4.486-8.622-5.98-12.534-3.677-3.857 2.265-4.944 7.614-2.004 12.072 2.953 4.488 8.621 5.98 12.533 3.677z"/></g></svg>