<svg xmlns="http://www.w3.org/2000/svg" width="14" height="10"><g data-name="Vector Smart Object" opacity=".6"><g data-name="Vector Smart Object"><path data-name="Path 9" d="M14 9.293V.706L9.173 4.999zm0 0"/><path data-name="Path 10" d="M7 6.932L5.622 5.706.795 10h12.411L8.379 5.707zm0 0"/><path data-name="Path 11" d="M13.206 0H.795L7 5.519zm0 0"/><path data-name="Path 12" d="M0 .706v8.586l4.827-4.293zm0 0"/></g><path data-name="Color Overlay" d="M.795 10l4.828-4.293 1.378 1.226 1.378-1.226L13.207 10zm8.378-5L14.001.707v8.587zM0 .707L4.828 5 0 9.293zM.795 0h12.411L7 5.519z" fill="#4b423d"/></g></svg>