<svg xmlns="http://www.w3.org/2000/svg" width="14" height="14"><g data-name="Vector Smart Object" opacity=".6"><g data-name="Vector Smart Object"><path data-name="Path 17" d="M13.993 11.048a.678.678 0 0 1-.208.593l-1.971 1.958a1.111 1.111 0 0 1-.348.252 1.44 1.44 0 0 1-.422.133l-.089.007q-.074.007-.193.007a6.836 6.836 0 0 1-.911-.1 6.911 6.911 0 0 1-1.541-.475 12.948 12.948 0 0 1-2.068-1.129 15.426 15.426 0 0 1-2.46-2.076 16.256 16.256 0 0 1-1.72-1.957 13.944 13.944 0 0 1-1.1-1.728A9.294 9.294 0 0 1 .34 5.094a7.633 7.633 0 0 1-.278-1.112 3.669 3.669 0 0 1-.06-.734q.015-.267.015-.3a1.442 1.442 0 0 1 .133-.423 1.11 1.11 0 0 1 .252-.345L2.374.208A.653.653 0 0 1 2.848 0a.552.552 0 0 1 .341.111 1.032 1.032 0 0 1 .252.274l1.586 3.011a.722.722 0 0 1 .074.519.924.924 0 0 1-.252.475l-.726.727a.248.248 0 0 0-.052.1.367.367 0 0 0-.022.111 2.676 2.676 0 0 0 .267.712 6.538 6.538 0 0 0 .548.868 9.633 9.633 0 0 0 1.052 1.179 9.812 9.812 0 0 0 1.186 1.056 6.843 6.843 0 0 0 .867.556 2.31 2.31 0 0 0 .534.215l.185.037a.354.354 0 0 0 .1-.022.246.246 0 0 0 .1-.052l.845-.86a.908.908 0 0 1 .622-.237.775.775 0 0 1 .4.089h.015l2.86 1.691a.746.746 0 0 1 .371.49zm0 0"/></g><path data-name="Color Overlay" d="M9.851 13.9a6.9 6.9 0 0 1-1.542-.475 12.936 12.936 0 0 1-2.067-1.134 15.353 15.353 0 0 1-2.461-2.076 16.28 16.28 0 0 1-1.719-1.957 14.007 14.007 0 0 1-1.1-1.728A9.325 9.325 0 0 1 .34 5.092a7.618 7.618 0 0 1-.282-1.113 3.674 3.674 0 0 1-.059-.734c.01-.178.014-.277.014-.3a1.442 1.442 0 0 1 .134-.422 1.1 1.1 0 0 1 .251-.348L2.37.202a.651.651 0 0 1 .474-.208.548.548 0 0 1 .34.112 1.019 1.019 0 0 1 .252.275l1.586 3.01a.721.721 0 0 1 .075.519.926.926 0 0 1-.252.474l-.726.726a.256.256 0 0 0-.052.1.385.385 0 0 0-.022.112 2.679 2.679 0 0 0 .267.712 6.643 6.643 0 0 0 .548.867A9.629 9.629 0 0 0 5.912 8.08a9.851 9.851 0 0 0 1.186 1.06 6.845 6.845 0 0 0 .867.556 2.321 2.321 0 0 0 .534.215l.185.037a.341.341 0 0 0 .1-.023.244.244 0 0 0 .1-.051l.845-.86a.9.9 0 0 1 .622-.238.775.775 0 0 1 .4.089h.014l2.861 1.691a.746.746 0 0 1 .37.49.679.679 0 0 1-.207.593l-1.971 1.958a1.109 1.109 0 0 1-.348.252 1.443 1.443 0 0 1-.423.133l-.089.008c-.049 0-.113.007-.193.007a6.878 6.878 0 0 1-.914-.097z" fill="#4b423d"/></g></svg>