<svg xmlns="http://www.w3.org/2000/svg" xmlns:xlink="http://www.w3.org/1999/xlink" width="25" height="22" viewBox="0 0 25 22">
  <defs>
    <clipPath id="clip-path">
      <rect id="crop" width="25" height="22" transform="translate(0 0.724)" fill="none"/>
    </clipPath>
  </defs>
  <g id="Vector_Smart_Object" data-name="Vector Smart Object" transform="translate(0 -0.724)" clip-path="url(#clip-path)">
    <path id="Path_29" data-name="Path 29" d="M10.483,18.544a2.03,2.03,0,1,0,0,4.045,2.03,2.03,0,1,0,0-4.045Zm0,2.916a.9.9,0,1,1,.971-.893A.936.936,0,0,1,10.483,21.46Z" stroke="#000" stroke-miterlimit="10" stroke-width="0.281"/>
    <path id="Path_30" data-name="Path 30" d="M18.195,18.544a2.03,2.03,0,1,0,2.2,2.023A2.119,2.119,0,0,0,18.195,18.544Zm0,2.916a.9.9,0,1,1,.971-.893A.936.936,0,0,1,18.195,21.46Z" stroke="#000" stroke-miterlimit="10" stroke-width="0.281"/>
    <path id="Path_31" data-name="Path 31" d="M24.724,4.93a1.266,1.266,0,0,0-.952-.416H4.652L4.266,2.789a1.156,1.156,0,0,0-.714-.808L.858.906A.635.635,0,0,0,.051,1.2a.548.548,0,0,0,.319.743L3.064,3.017l2.97,13.712a1.212,1.212,0,0,0,1.2.9H21.942a.567.567,0,1,0,0-1.129H7.236l-.361-2.062h15.18a1.212,1.212,0,0,0,1.2-.9l1.717-7.667A1.059,1.059,0,0,0,24.724,4.93Zm-2.669,8.38H6.622L4.905,5.643H23.772Z" stroke="#000" stroke-miterlimit="10" stroke-width="0.281"/>
  </g>
</svg>
