<svg xmlns="http://www.w3.org/2000/svg" width="82.496" height="82.498" viewBox="0 0 82.496 82.498">
  <g id="iconfinder_google_plus_279406" transform="translate(0.32 25.92)">
    <path id="path3193" d="M0,48.78v-66.9A7.481,7.481,0,0,1,7.476-25.6h66.9a7.484,7.484,0,0,1,7.476,7.477v66.9a7.481,7.481,0,0,1-7.476,7.477H7.476A7.479,7.479,0,0,1,0,48.78Zm79.3,0v-66.9a4.929,4.929,0,0,0-4.918-4.919H7.476a4.927,4.927,0,0,0-4.918,4.919v66.9A4.925,4.925,0,0,0,7.476,53.7h66.9A4.927,4.927,0,0,0,79.3,48.78Z" transform="translate(0 0)" fill="#fff200" stroke="#fff200" stroke-width="0.64" fill-rule="evenodd"/>
    <path id="path3195" d="M4,18.379C4,12.393,11.848,8.132,20.62,8.132a25.573,25.573,0,0,1,7.571,1.119,10.153,10.153,0,0,1-2.145-2.146,6.8,6.8,0,0,1-1.211-4.5C19.949,4.025,14.28,1.774,11.214-2.879c-3.588-5.448-2.5-12.543,2.844-15.688A10.5,10.5,0,0,1,19.345-20L37.25-20v2.555H26.862a13.45,13.45,0,0,1,3.168,3.353c3.489,5.3,2.554,12.157-2.418,15.422,0,.024-.007.044-.01.065a4.883,4.883,0,0,0,.535,4.237A12.979,12.979,0,0,0,31.49,8.453c2.534,1.743,5.45,3.909,5.624,8.644a6.7,6.7,0,0,1,.126,1.283c0,5.99-7.851,10.247-16.62,10.247C11.8,28.626,4,24.345,4,18.379Zm30.49,1.214a1.233,1.233,0,0,1-.027-.488,12.076,12.076,0,0,0,.1-1.658c-.839-3.51-6.34-6.757-13.946-6.757-8.363,0-14.062,3.882-14.062,7.689,0,3.848,5.777,7.689,14.062,7.689C28.089,26.068,33.441,22.971,34.491,19.594ZM50.036.464V-7.2H42.362V-9.766h7.674v-7.675H52.6v7.675h7.674V-7.2H52.6V.464ZM25.886-.611c3.857-2.265,4.945-7.614,2.005-12.072-2.953-4.486-8.622-5.98-12.534-3.677C11.5-14.095,10.413-8.746,13.353-4.288,16.306.2,21.974,1.692,25.886-.611Z" transform="translate(8.792 12.308)" fill="#fff200" stroke="#fff200" stroke-width="0.64" fill-rule="evenodd"/>
  </g>
</svg>
