<svg xmlns="http://www.w3.org/2000/svg" width="14" height="10" viewBox="0 0 14 10">
  <g id="Vector_Smart_Object" data-name="Vector Smart Object" transform="translate(-99 -3086)" opacity="0.6">
    <g id="Vector_Smart_Object-2" data-name="Vector Smart Object" transform="translate(92.842 3072.542)">
      <path id="Path_9" data-name="Path 9" d="M20.158,22.751V14.164l-4.827,4.293Zm0,0"/>
      <path id="Path_10" data-name="Path 10" d="M13.158,20.39,11.78,19.164,6.953,23.458H19.364l-4.827-4.293Zm0,0"/>
      <path id="Path_11" data-name="Path 11" d="M19.364,13.458H6.953l6.205,5.519Zm0,0"/>
      <path id="Path_12" data-name="Path 12" d="M6.158,14.164v8.586l4.827-4.293Zm0,0"/>
    </g>
    <path id="Color_Overlay" data-name="Color Overlay" d="M99.795,3096l4.828-4.293,1.378,1.226,1.378-1.226,4.828,4.293Zm8.378-5,4.828-4.293v8.587ZM99,3086.707l4.828,4.293L99,3095.293Zm.795-.707h12.411L106,3091.519Z" fill="#4b423d"/>
  </g>
</svg>
