<svg xmlns="http://www.w3.org/2000/svg" width="14" height="14" viewBox="0 0 14 14">
  <g id="Vector_Smart_Object" data-name="Vector Smart Object" transform="translate(-100 -3108)" opacity="0.6">
    <g id="Vector_Smart_Object-2" data-name="Vector Smart Object" transform="translate(98.002 3102.248)">
      <path id="Path_17" data-name="Path 17" d="M15.991,16.8a.678.678,0,0,1-.208.593l-1.971,1.958a1.111,1.111,0,0,1-.348.252,1.44,1.44,0,0,1-.422.133l-.089.007q-.074.007-.193.007a6.836,6.836,0,0,1-.911-.1,6.911,6.911,0,0,1-1.541-.475A12.948,12.948,0,0,1,8.24,18.046,15.426,15.426,0,0,1,5.78,15.97,16.256,16.256,0,0,1,4.06,14.013a13.944,13.944,0,0,1-1.1-1.728,9.294,9.294,0,0,1-.622-1.439A7.633,7.633,0,0,1,2.06,9.734,3.669,3.669,0,0,1,2,9q.015-.267.015-.3a1.442,1.442,0,0,1,.133-.423A1.11,1.11,0,0,1,2.4,7.932L4.372,5.96a.653.653,0,0,1,.474-.208.552.552,0,0,1,.341.111,1.032,1.032,0,0,1,.252.274L7.025,9.148a.722.722,0,0,1,.074.519.924.924,0,0,1-.252.475l-.726.727a.248.248,0,0,0-.052.1.367.367,0,0,0-.022.111,2.676,2.676,0,0,0,.267.712,6.538,6.538,0,0,0,.548.868,9.633,9.633,0,0,0,1.052,1.179A9.812,9.812,0,0,0,9.1,14.895a6.843,6.843,0,0,0,.867.556,2.31,2.31,0,0,0,.534.215l.185.037a.354.354,0,0,0,.1-.022.246.246,0,0,0,.1-.052l.845-.86a.908.908,0,0,1,.622-.237.775.775,0,0,1,.4.089h.015l2.86,1.691a.746.746,0,0,1,.371.49Zm0,0"/>
    </g>
    <path id="Color_Overlay" data-name="Color Overlay" d="M109.851,3121.9a6.9,6.9,0,0,1-1.542-.475,12.936,12.936,0,0,1-2.067-1.134,15.353,15.353,0,0,1-2.461-2.076,16.28,16.28,0,0,1-1.719-1.957,14.007,14.007,0,0,1-1.1-1.728,9.325,9.325,0,0,1-.622-1.438,7.618,7.618,0,0,1-.282-1.113,3.674,3.674,0,0,1-.059-.734c.01-.178.014-.277.014-.3a1.442,1.442,0,0,1,.134-.422,1.1,1.1,0,0,1,.251-.348l1.972-1.973a.651.651,0,0,1,.474-.208.548.548,0,0,1,.34.112,1.019,1.019,0,0,1,.252.275l1.586,3.01a.721.721,0,0,1,.075.519.926.926,0,0,1-.252.474l-.726.726a.256.256,0,0,0-.052.1.385.385,0,0,0-.022.112,2.679,2.679,0,0,0,.267.712,6.643,6.643,0,0,0,.548.867,9.629,9.629,0,0,0,1.052,1.179,9.851,9.851,0,0,0,1.186,1.06,6.845,6.845,0,0,0,.867.556,2.321,2.321,0,0,0,.534.215l.185.037a.341.341,0,0,0,.1-.023.244.244,0,0,0,.1-.051l.845-.86a.9.9,0,0,1,.622-.238.775.775,0,0,1,.4.089h.014l2.861,1.691a.746.746,0,0,1,.37.49.679.679,0,0,1-.207.593l-1.971,1.958a1.109,1.109,0,0,1-.348.252,1.443,1.443,0,0,1-.423.133l-.089.008c-.049,0-.113.007-.193.007A6.878,6.878,0,0,1,109.851,3121.9Z" fill="#4b423d"/>
  </g>
</svg>
