<?xml version="1.0" ?><!DOCTYPE svg  PUBLIC '-//W3C//DTD SVG 1.1//EN'  'http://www.w3.org/Graphics/SVG/1.1/DTD/svg11.dtd'><svg height="32px" id="Layer_1" style="enable-background:new 0 0 32 32;" version="1.1" viewBox="0 0 32 32" width="32px" xml:space="preserve" xmlns="http://www.w3.org/2000/svg" xmlns:xlink="http://www.w3.org/1999/xlink"><g transform="translate(288 144)"><path d="M-278-120h10v2h-10V-120z"/><path d="M-280-142h16v4h2v-4c0-1.103-0.896-2-2-2h-16c-1.104,0-2,0.896-2,2v4h2V-142z"/><path d="M-278-124h12v2h-12V-124z"/><path d="M-258-136h-28c-1.104,0-2,0.896-2,2v12c0,1.105,0.896,2,2,2h4v6c0,1.105,0.896,2,2,2h16c1.104,0,2-0.895,2-2v-6h4   c1.104,0,2-0.895,2-2v-12C-256-135.104-256.897-136-258-136z M-264-114h-16v-12h16V-114z M-260-130c-1.104,0-2-0.895-2-2   c0-1.104,0.896-2,2-2s2,0.896,2,2C-258-130.895-258.897-130-260-130z"/></g></svg>